<?xml version="1.0" encoding="UTF-8"?><svg id="Calque_1" xmlns="http://www.w3.org/2000/svg" width="168.29" height="105.91" viewBox="0 0 168.29 105.91"><defs><style>.cls-1{fill:#f98f46;}.cls-2{fill:#fff;}.cls-3{fill:#fff794;}.cls-4{fill:#fcbea6;}.cls-5{fill:#ff2945;}.cls-6{fill:#ff5050;}.cls-7{fill:#c33a8c;}.cls-8{fill:#d52646;}.cls-9{fill:#14a7f4;}.cls-10{fill:#16e7ec;}</style></defs><g><path d="M6.17,81.26l.72,.6c-.11,.16-.29,.36-.54,.58-.25,.22-.56,.42-.94,.59-.38,.17-.82,.25-1.32,.25-.7,0-1.32-.16-1.86-.49-.54-.32-.96-.77-1.26-1.33s-.45-1.19-.45-1.9c0-.52,.09-1.01,.26-1.46,.17-.45,.42-.85,.73-1.2,.32-.35,.7-.62,1.14-.81,.44-.2,.93-.29,1.46-.29,.51,0,.94,.08,1.31,.23s.67,.34,.9,.56,.43,.43,.56,.63l-.73,.62c-.11-.16-.26-.33-.43-.5-.18-.17-.39-.32-.65-.43s-.58-.18-.95-.18c-.52,0-.97,.13-1.34,.39-.37,.26-.66,.6-.87,1.02s-.31,.9-.31,1.42,.1,.98,.31,1.4,.49,.75,.86,1c.37,.25,.81,.37,1.32,.37,.43,0,.78-.07,1.05-.2,.27-.14,.49-.29,.65-.46s.29-.3,.38-.4Z"/><path d="M11.81,81.8l.55,.58c-.07,.09-.2,.2-.39,.34-.19,.14-.43,.26-.72,.38-.3,.11-.65,.17-1.08,.17-.51,0-.97-.11-1.36-.34-.39-.22-.7-.54-.92-.94s-.33-.87-.33-1.4c0-.49,.11-.92,.32-1.32s.5-.71,.88-.94c.37-.23,.8-.35,1.29-.35,.58,0,1.05,.14,1.4,.42s.62,.64,.78,1.08c.16,.44,.25,.92,.25,1.42h-3.93c0,.29,.09,.55,.24,.79s.35,.41,.59,.55c.25,.13,.51,.2,.8,.2,.42,0,.77-.07,1.04-.21s.47-.28,.58-.42Zm-3.26-1.62h2.93c-.03-.39-.16-.71-.41-.99-.24-.27-.59-.41-1.03-.41-.31,0-.57,.07-.79,.2-.22,.14-.39,.31-.51,.52s-.18,.43-.2,.67Z"/><path d="M14.63,83.11h-.96v-4.66c0-.07,0-.17-.01-.32h.92l.03,.75c.09-.12,.2-.25,.34-.38,.14-.13,.32-.25,.54-.34s.48-.14,.79-.14c.65,0,1.13,.19,1.45,.57s.47,.89,.47,1.54v2.99h-.96v-2.91c0-.46-.1-.8-.31-1.02-.2-.22-.48-.33-.84-.33s-.65,.09-.87,.28-.37,.43-.46,.73-.13,.61-.13,.93v2.31Z"/><path d="M20.03,81.48v-2.55h-.9v-.8h.9v-1.63h.96v1.63h1.46v.8h-1.46v2.45c0,.4,.06,.67,.19,.83,.12,.15,.3,.22,.53,.22,.19,0,.34-.03,.47-.09,.12-.06,.24-.14,.36-.26l.44,.59c-.21,.2-.42,.34-.64,.43-.22,.09-.48,.13-.78,.13-.52,0-.91-.14-1.16-.43-.25-.29-.38-.73-.38-1.33Z"/><path d="M24.78,83.11h-.96v-4.67c0-.06,0-.17-.01-.31h.92l.03,.8c.08-.11,.19-.24,.33-.38,.14-.13,.32-.25,.53-.35,.21-.1,.47-.15,.77-.15,.11,0,.21,0,.29,.02,.09,.01,.17,.04,.25,.06l-.21,.9c-.13-.05-.29-.08-.49-.08-.27,0-.52,.07-.73,.21-.22,.14-.39,.32-.52,.55-.13,.23-.19,.48-.19,.76v2.62Z"/><path d="M31.55,81.8l.55,.58c-.07,.09-.2,.2-.39,.34-.19,.14-.43,.26-.72,.38-.3,.11-.65,.17-1.08,.17-.51,0-.97-.11-1.36-.34-.39-.22-.7-.54-.92-.94s-.33-.87-.33-1.4c0-.49,.11-.92,.32-1.32s.5-.71,.88-.94c.37-.23,.8-.35,1.29-.35,.58,0,1.05,.14,1.4,.42s.62,.64,.78,1.08c.16,.44,.25,.92,.25,1.42h-3.93c0,.29,.09,.55,.24,.79s.35,.41,.59,.55c.25,.13,.51,.2,.8,.2,.42,0,.77-.07,1.04-.21s.47-.28,.58-.42Zm-3.26-1.62h2.93c-.03-.39-.16-.71-.41-.99-.24-.27-.59-.41-1.03-.41-.31,0-.57,.07-.79,.2-.22,.14-.39,.31-.51,.52s-.18,.43-.2,.67Z"/><path d="M39.07,83.11l-.03-.63c-.05,.06-.14,.15-.27,.28-.13,.13-.31,.25-.53,.35-.22,.1-.49,.16-.81,.16-.42,0-.8-.11-1.13-.32-.34-.21-.6-.51-.79-.89-.19-.38-.29-.84-.29-1.36,0-.47,.08-.88,.24-1.22s.37-.62,.63-.83,.53-.37,.83-.48c.3-.1,.58-.16,.84-.16s.51,.03,.7,.09c.2,.06,.39,.14,.59,.24v-2.37h.96v6.84c0,.1,0,.21,.01,.31h-.94Zm-.03-2.1v-1.78c-.13-.11-.29-.2-.49-.27s-.44-.11-.73-.11c-.46,0-.85,.17-1.16,.49s-.47,.78-.47,1.35c0,.31,.05,.6,.16,.87,.1,.26,.26,.47,.48,.63,.21,.15,.49,.23,.81,.23s.6-.08,.81-.23c.2-.15,.35-.34,.45-.56,.1-.22,.14-.43,.14-.62Z"/><path d="M45.44,81.8l.55,.58c-.07,.09-.2,.2-.39,.34-.19,.14-.43,.26-.72,.38-.3,.11-.65,.17-1.08,.17-.51,0-.97-.11-1.36-.34-.39-.22-.7-.54-.92-.94s-.33-.87-.33-1.4c0-.49,.11-.92,.32-1.32s.5-.71,.88-.94c.37-.23,.8-.35,1.29-.35,.58,0,1.05,.14,1.4,.42s.62,.64,.78,1.08c.16,.44,.25,.92,.25,1.42h-3.93c0,.29,.09,.55,.24,.79s.35,.41,.59,.55c.25,.13,.51,.2,.8,.2,.42,0,.77-.07,1.04-.21s.47-.28,.58-.42Zm-3.26-1.62h2.93c-.03-.39-.16-.71-.41-.99-.24-.27-.59-.41-1.03-.41-.31,0-.57,.07-.79,.2-.22,.14-.39,.31-.51,.52s-.18,.43-.2,.67Z"/><path d="M50.3,83.11h-.96v-4.67c0-.06,0-.17-.01-.31h.92l.03,.8c.08-.11,.19-.24,.33-.38,.14-.13,.32-.25,.53-.35,.21-.1,.47-.15,.77-.15,.11,0,.21,0,.29,.02,.09,.01,.17,.04,.25,.06l-.21,.9c-.13-.05-.29-.08-.49-.08-.27,0-.52,.07-.73,.21-.22,.14-.39,.32-.52,.55-.13,.23-.19,.48-.19,.76v2.62Z"/><path d="M57.07,81.8l.55,.58c-.07,.09-.2,.2-.39,.34-.19,.14-.43,.26-.72,.38-.3,.11-.65,.17-1.08,.17-.51,0-.97-.11-1.36-.34-.39-.22-.7-.54-.92-.94s-.33-.87-.33-1.4c0-.49,.11-.92,.32-1.32s.5-.71,.88-.94c.37-.23,.8-.35,1.29-.35,.58,0,1.05,.14,1.4,.42s.62,.64,.78,1.08c.16,.44,.25,.92,.25,1.42h-3.93c0,.29,.09,.55,.24,.79s.35,.41,.59,.55c.25,.13,.51,.2,.8,.2,.42,0,.77-.07,1.04-.21s.47-.28,.58-.42Zm-3.26-1.62h2.93c-.03-.39-.16-.71-.41-.99-.24-.27-.59-.41-1.03-.41-.31,0-.57,.07-.79,.2-.22,.14-.39,.31-.51,.52s-.18,.43-.2,.67Z"/><path d="M62.66,81.8l.59,.62c-.22,.25-.5,.45-.82,.61-.33,.15-.7,.23-1.12,.23-.54,0-1-.12-1.39-.34-.39-.23-.69-.54-.91-.94-.21-.4-.32-.85-.32-1.37,0-.49,.11-.93,.33-1.33,.22-.4,.53-.72,.93-.96,.4-.24,.85-.36,1.35-.36,.42,0,.79,.08,1.11,.22,.32,.15,.6,.35,.82,.61l-.63,.61c-.15-.19-.33-.33-.55-.44s-.47-.16-.76-.16c-.34,0-.64,.08-.88,.25-.25,.17-.43,.39-.56,.66s-.19,.57-.19,.89,.07,.6,.2,.87c.13,.27,.32,.5,.56,.67s.54,.26,.88,.26c.29,0,.56-.05,.79-.17,.23-.11,.42-.26,.57-.44Z"/><path d="M64.3,83.11v-7.14h.95v2.9c.09-.12,.2-.25,.34-.38s.32-.24,.54-.34,.48-.14,.79-.14c.65,0,1.13,.19,1.45,.57,.31,.38,.47,.89,.47,1.54v2.99h-.96v-2.91c0-.46-.1-.8-.31-1.02-.2-.22-.48-.33-.84-.33s-.65,.09-.87,.28-.37,.43-.46,.73-.13,.61-.13,.93v2.31h-.96Z"/><path d="M74.23,81.8l.55,.58c-.07,.09-.2,.2-.39,.34-.19,.14-.43,.26-.72,.38-.3,.11-.65,.17-1.08,.17-.51,0-.97-.11-1.36-.34-.39-.22-.7-.54-.92-.94s-.33-.87-.33-1.4c0-.49,.11-.92,.32-1.32s.5-.71,.88-.94c.37-.23,.8-.35,1.29-.35,.58,0,1.05,.14,1.4,.42s.62,.64,.78,1.08c.16,.44,.25,.92,.25,1.42h-3.93c0,.29,.09,.55,.24,.79s.35,.41,.59,.55c.25,.13,.51,.2,.8,.2,.42,0,.77-.07,1.04-.21s.47-.28,.58-.42Zm-3.26-1.62h2.93c-.03-.39-.16-.71-.41-.99-.24-.27-.59-.41-1.03-.41-.31,0-.57,.07-.79,.2-.22,.14-.39,.31-.51,.52s-.18,.43-.2,.67Z"/><path d="M77.04,83.11h-.96v-4.67c0-.06,0-.17-.01-.31h.92l.03,.8c.08-.11,.19-.24,.33-.38,.14-.13,.32-.25,.53-.35,.21-.1,.47-.15,.77-.15,.11,0,.21,0,.29,.02,.09,.01,.17,.04,.25,.06l-.21,.9c-.13-.05-.29-.08-.49-.08-.27,0-.52,.07-.73,.21-.22,.14-.39,.32-.52,.55-.13,.23-.19,.48-.19,.76v2.62Z"/><path d="M83.55,81.8l.59,.62c-.22,.25-.5,.45-.82,.61-.33,.15-.7,.23-1.12,.23-.54,0-1-.12-1.39-.34-.39-.23-.69-.54-.91-.94-.21-.4-.32-.85-.32-1.37,0-.49,.11-.93,.33-1.33,.22-.4,.53-.72,.93-.96,.4-.24,.85-.36,1.35-.36,.42,0,.79,.08,1.11,.22,.32,.15,.6,.35,.82,.61l-.63,.61c-.15-.19-.33-.33-.55-.44s-.47-.16-.76-.16c-.34,0-.64,.08-.88,.25-.25,.17-.43,.39-.56,.66s-.19,.57-.19,.89,.07,.6,.2,.87c.13,.27,.32,.5,.56,.67s.54,.26,.88,.26c.29,0,.56-.05,.79-.17,.23-.11,.42-.26,.57-.44Z"/><path d="M85.19,83.11v-7.14h.95v2.9c.09-.12,.2-.25,.34-.38s.32-.24,.54-.34,.48-.14,.79-.14c.65,0,1.13,.19,1.45,.57,.31,.38,.47,.89,.47,1.54v2.99h-.96v-2.91c0-.46-.1-.8-.31-1.02-.2-.22-.48-.33-.84-.33s-.65,.09-.87,.28-.37,.43-.46,.73-.13,.61-.13,.93v2.31h-.96Z"/><path d="M95.12,81.8l.55,.58c-.07,.09-.2,.2-.39,.34-.19,.14-.43,.26-.72,.38-.3,.11-.65,.17-1.08,.17-.51,0-.97-.11-1.36-.34-.39-.22-.7-.54-.92-.94s-.33-.87-.33-1.4c0-.49,.11-.92,.32-1.32s.5-.71,.88-.94c.37-.23,.8-.35,1.29-.35,.58,0,1.05,.14,1.4,.42s.62,.64,.78,1.08c.16,.44,.25,.92,.25,1.42h-3.93c0,.29,.09,.55,.24,.79s.35,.41,.59,.55c.25,.13,.51,.2,.8,.2,.42,0,.77-.07,1.04-.21s.47-.28,.58-.42Zm-3.26-1.62h2.93c-.03-.39-.16-.71-.41-.99-.24-.27-.59-.41-1.03-.41-.31,0-.57,.07-.79,.2-.22,.14-.39,.31-.51,.52s-.18,.43-.2,.67Z"/><path d="M103.01,81.8l.55,.58c-.07,.09-.2,.2-.39,.34-.19,.14-.43,.26-.72,.38-.3,.11-.65,.17-1.08,.17-.51,0-.97-.11-1.36-.34-.39-.22-.7-.54-.92-.94s-.33-.87-.33-1.4c0-.49,.11-.92,.32-1.32s.5-.71,.88-.94c.37-.23,.8-.35,1.29-.35,.58,0,1.05,.14,1.4,.42s.62,.64,.78,1.08c.16,.44,.25,.92,.25,1.42h-3.93c0,.29,.09,.55,.24,.79s.35,.41,.59,.55c.25,.13,.51,.2,.8,.2,.42,0,.77-.07,1.04-.21s.47-.28,.58-.42Zm-3.26-1.62h2.93c-.03-.39-.16-.71-.41-.99-.24-.27-.59-.41-1.03-.41-.31,0-.57,.07-.79,.2-.22,.14-.39,.31-.51,.52s-.18,.43-.2,.67Z"/><path d="M105.29,81.48v-2.55h-.9v-.8h.9v-1.63h.96v1.63h1.46v.8h-1.46v2.45c0,.4,.06,.67,.19,.83,.12,.15,.3,.22,.53,.22,.19,0,.34-.03,.47-.09,.12-.06,.25-.14,.36-.26l.44,.59c-.21,.2-.42,.34-.64,.43-.22,.09-.48,.13-.78,.13-.52,0-.91-.14-1.16-.43-.25-.29-.37-.73-.37-1.33Z"/><path d="M114.75,83.11l-.03-.63c-.05,.06-.14,.15-.27,.28-.13,.13-.31,.25-.53,.35-.22,.1-.49,.16-.81,.16-.42,0-.8-.11-1.14-.32-.33-.21-.6-.51-.79-.89-.19-.38-.29-.84-.29-1.36,0-.47,.08-.88,.24-1.22,.16-.34,.37-.62,.63-.83s.53-.37,.83-.48c.3-.1,.58-.16,.84-.16s.5,.03,.7,.09c.2,.06,.39,.14,.59,.24v-2.37h.96v6.84c0,.1,0,.21,.01,.31h-.94Zm-.03-2.1v-1.78c-.13-.11-.29-.2-.49-.27s-.44-.11-.73-.11c-.46,0-.85,.17-1.16,.49s-.47,.78-.47,1.35c0,.31,.05,.6,.16,.87,.1,.26,.26,.47,.48,.63,.21,.15,.49,.23,.81,.23s.61-.08,.81-.23c.2-.15,.35-.34,.45-.56,.1-.22,.14-.43,.14-.62Z"/><path d="M117.18,78.09l.21-2.12h1.09l-.57,2.12h-.74Z"/><path d="M119.77,77.24v-1.08h1.08v1.08h-1.08Zm.06,5.87v-4.98h.96v4.98h-.96Z"/><path d="M123.24,83.11h-.96v-4.66c0-.07,0-.17-.01-.32h.92l.03,.75c.09-.12,.2-.25,.34-.38s.32-.25,.54-.34,.48-.14,.79-.14c.65,0,1.13,.19,1.45,.57s.47,.89,.47,1.54v2.99h-.96v-2.91c0-.46-.1-.8-.31-1.02s-.48-.33-.84-.33-.65,.09-.87,.28-.37,.43-.46,.73c-.09,.3-.13,.61-.13,.93v2.31Z"/><path d="M129.17,83.11h-.96v-4.66c0-.07,0-.17-.01-.32h.92l.03,.75c.09-.12,.2-.25,.34-.38s.32-.25,.54-.34,.48-.14,.79-.14c.65,0,1.13,.19,1.45,.57s.47,.89,.47,1.54v2.99h-.96v-2.91c0-.46-.1-.8-.31-1.02s-.48-.33-.84-.33-.65,.09-.87,.28-.37,.43-.46,.73c-.09,.3-.13,.61-.13,.93v2.31Z"/><path d="M136.54,83.26c-.51,0-.96-.12-1.36-.36-.4-.24-.71-.56-.94-.96s-.34-.84-.34-1.32,.11-.93,.34-1.33c.22-.4,.54-.72,.94-.96,.4-.24,.85-.36,1.36-.36s.96,.12,1.36,.36c.4,.24,.71,.56,.94,.96,.23,.4,.34,.84,.34,1.33s-.11,.92-.34,1.32-.54,.72-.94,.96c-.4,.24-.85,.36-1.36,.36Zm0-.84c.35,0,.65-.09,.89-.26,.25-.17,.44-.4,.57-.68s.2-.57,.2-.87-.07-.59-.2-.87c-.13-.28-.32-.51-.57-.68-.25-.17-.55-.26-.89-.26s-.64,.09-.89,.26-.44,.4-.57,.67c-.13,.28-.2,.57-.2,.87s.07,.59,.2,.86c.14,.27,.33,.5,.57,.68,.25,.18,.54,.27,.88,.27Z"/><path d="M141.65,83.11l-2.14-4.98h1.1l1.55,3.89,1.54-3.89h1.04l-2.13,4.98h-.96Z"/><path d="M148.51,83.11l-.02-.6c-.18,.24-.42,.43-.73,.55-.31,.12-.62,.19-.94,.19-.27,0-.54-.05-.81-.15-.27-.1-.49-.26-.66-.49-.17-.23-.26-.53-.26-.91,0-.54,.19-.96,.57-1.29,.38-.32,.92-.48,1.62-.48,.16,0,.32,0,.49,.02s.32,.02,.46,.03,.22,.02,.27,.03v-.18c0-.37-.11-.64-.34-.8-.23-.16-.53-.24-.92-.24s-.67,.05-.89,.16c-.22,.1-.41,.21-.56,.32l-.45-.65c.18-.14,.42-.28,.74-.42,.31-.13,.74-.2,1.27-.2,.63,0,1.14,.16,1.51,.47s.56,.75,.56,1.32v3.08c0,.07,0,.16,.01,.26h-.9Zm-.03-1.79v-.57s-.12-.03-.25-.04c-.13-.01-.27-.02-.43-.03-.16-.01-.32-.02-.47-.02-.36,0-.63,.05-.82,.16-.19,.1-.32,.23-.39,.38-.07,.15-.1,.31-.1,.46,0,.26,.09,.47,.28,.61,.19,.14,.44,.21,.77,.21,.25,0,.48-.06,.69-.17,.21-.11,.38-.25,.51-.43s.2-.37,.2-.57Z"/><path d="M151.26,81.48v-2.55h-.9v-.8h.9v-1.63h.96v1.63h1.46v.8h-1.46v2.45c0,.4,.06,.67,.19,.83,.12,.15,.3,.22,.53,.22,.19,0,.34-.03,.47-.09,.12-.06,.25-.14,.36-.26l.44,.59c-.21,.2-.42,.34-.64,.43-.22,.09-.48,.13-.78,.13-.52,0-.91-.14-1.16-.43-.25-.29-.37-.73-.37-1.33Z"/><path d="M155.02,77.24v-1.08h1.08v1.08h-1.08Zm.06,5.87v-4.98h.96v4.98h-.96Z"/><path d="M159.93,83.26c-.51,0-.96-.12-1.36-.36-.4-.24-.71-.56-.94-.96s-.34-.84-.34-1.32,.11-.93,.34-1.33c.22-.4,.54-.72,.94-.96,.4-.24,.85-.36,1.36-.36s.96,.12,1.36,.36c.4,.24,.71,.56,.94,.96,.23,.4,.34,.84,.34,1.33s-.11,.92-.34,1.32-.54,.72-.94,.96c-.4,.24-.85,.36-1.36,.36Zm0-.84c.35,0,.65-.09,.89-.26,.25-.17,.44-.4,.57-.68s.2-.57,.2-.87-.07-.59-.2-.87c-.13-.28-.32-.51-.57-.68-.25-.17-.55-.26-.89-.26s-.64,.09-.89,.26-.44,.4-.57,.67c-.13,.28-.2,.57-.2,.87s.07,.59,.2,.86c.14,.27,.33,.5,.57,.68,.25,.18,.54,.27,.88,.27Z"/><path d="M164.73,83.11h-.96v-4.66c0-.07,0-.17-.01-.32h.92l.03,.75c.09-.12,.2-.25,.34-.38s.32-.25,.54-.34,.48-.14,.79-.14c.65,0,1.13,.19,1.45,.57s.47,.89,.47,1.54v2.99h-.96v-2.91c0-.46-.1-.8-.31-1.02s-.48-.33-.84-.33-.65,.09-.87,.28-.37,.43-.46,.73c-.09,.3-.13,.61-.13,.93v2.31Z"/><path d="M4.66,94.65l.55,.58c-.07,.09-.2,.2-.39,.34-.19,.14-.43,.26-.72,.38-.3,.11-.65,.17-1.08,.17-.51,0-.97-.11-1.36-.34-.39-.22-.7-.54-.92-.94s-.33-.87-.33-1.4c0-.49,.11-.92,.32-1.32s.5-.71,.88-.94c.37-.23,.8-.35,1.29-.35,.58,0,1.05,.14,1.4,.42s.62,.64,.78,1.08c.16,.44,.25,.92,.25,1.42H1.4c0,.29,.09,.55,.24,.79s.35,.41,.59,.55c.25,.13,.51,.2,.8,.2,.42,0,.77-.07,1.04-.21s.47-.28,.58-.42Zm-3.26-1.62h2.93c-.03-.39-.16-.71-.41-.99-.24-.27-.59-.41-1.03-.41-.31,0-.57,.07-.79,.2-.22,.14-.39,.31-.51,.52s-.18,.43-.2,.67Z"/><path d="M7.37,95.96h-.96v-4.66c0-.07,0-.17-.01-.32h.92l.03,.75c.09-.12,.2-.25,.34-.38,.14-.13,.32-.25,.54-.34s.48-.14,.79-.14c.65,0,1.13,.19,1.45,.57s.47,.89,.47,1.54v2.99h-.96v-2.91c0-.46-.1-.8-.31-1.02-.2-.22-.48-.33-.84-.33s-.65,.09-.87,.28-.37,.43-.46,.73-.13,.61-.13,.93v2.31Z"/><path d="M14.6,94.33v-2.55h-.9v-.8h.9v-1.63h.96v1.63h1.46v.8h-1.46v2.45c0,.4,.06,.67,.19,.83,.12,.15,.3,.22,.53,.22,.19,0,.34-.03,.47-.09,.12-.06,.24-.14,.36-.26l.44,.59c-.21,.2-.42,.34-.64,.43-.22,.09-.48,.13-.78,.13-.52,0-.91-.14-1.16-.43-.25-.29-.38-.73-.38-1.33Z"/><path d="M21.95,94.65l.55,.58c-.07,.09-.2,.2-.39,.34-.19,.14-.43,.26-.72,.38-.3,.11-.65,.17-1.08,.17-.51,0-.97-.11-1.36-.34-.39-.22-.7-.54-.92-.94s-.33-.87-.33-1.4c0-.49,.11-.92,.32-1.32s.5-.71,.88-.94c.37-.23,.8-.35,1.29-.35,.58,0,1.05,.14,1.4,.42s.62,.64,.78,1.08c.16,.44,.25,.92,.25,1.42h-3.93c0,.29,.09,.55,.24,.79s.35,.41,.59,.55c.25,.13,.51,.2,.8,.2,.42,0,.77-.07,1.04-.21s.47-.28,.58-.42Zm-3.26-1.62h2.93c-.03-.39-.16-.71-.41-.99-.24-.27-.59-.41-1.03-.41-.31,0-.57,.07-.79,.2-.22,.14-.39,.31-.51,.52s-.18,.43-.2,.67Z"/><path d="M27.44,94.65l.59,.62c-.22,.25-.5,.45-.82,.61-.33,.15-.7,.23-1.12,.23-.54,0-1-.12-1.39-.34-.39-.23-.69-.54-.91-.94-.21-.4-.32-.85-.32-1.37,0-.49,.11-.93,.33-1.33,.22-.4,.53-.72,.93-.96,.4-.24,.85-.36,1.35-.36,.42,0,.79,.08,1.11,.22,.32,.15,.6,.35,.82,.61l-.63,.61c-.15-.19-.33-.33-.55-.44s-.47-.16-.76-.16c-.34,0-.64,.08-.88,.25-.25,.17-.43,.39-.56,.66s-.19,.57-.19,.89,.07,.6,.2,.87c.13,.27,.32,.5,.56,.67s.54,.26,.88,.26c.29,0,.56-.05,.79-.17,.23-.11,.42-.26,.57-.44Z"/><path d="M28.97,95.96v-7.14h.95v2.9c.09-.12,.2-.25,.34-.38s.32-.24,.54-.34,.48-.14,.79-.14c.65,0,1.13,.19,1.45,.57,.31,.38,.47,.89,.47,1.54v2.99h-.96v-2.91c0-.46-.1-.8-.31-1.02-.2-.22-.48-.33-.84-.33s-.65,.09-.87,.28-.37,.43-.46,.73-.13,.61-.13,.93v2.31h-.96Z"/><path d="M35.76,95.96h-.96v-4.66c0-.07,0-.17-.01-.32h.92l.03,.75c.09-.12,.2-.25,.34-.38,.14-.13,.32-.25,.54-.34s.48-.14,.79-.14c.65,0,1.13,.19,1.45,.57s.47,.89,.47,1.54v2.99h-.96v-2.91c0-.46-.1-.8-.31-1.02-.2-.22-.48-.33-.84-.33s-.65,.09-.87,.28-.37,.43-.46,.73-.13,.61-.13,.93v2.31Z"/><path d="M43.02,96.11c-.51,0-.96-.12-1.36-.36s-.71-.56-.94-.96c-.22-.4-.34-.84-.34-1.32s.11-.93,.34-1.33c.23-.4,.54-.72,.94-.96s.85-.36,1.36-.36,.96,.12,1.35,.36c.4,.24,.71,.56,.94,.96,.23,.4,.34,.84,.34,1.33s-.11,.92-.34,1.32-.54,.72-.94,.96c-.4,.24-.85,.36-1.35,.36Zm0-.84c.35,0,.65-.09,.89-.26,.25-.17,.44-.4,.57-.68,.13-.28,.2-.57,.2-.87s-.07-.59-.2-.87c-.13-.28-.32-.51-.57-.68s-.55-.26-.89-.26-.64,.09-.89,.26-.44,.4-.57,.67c-.13,.28-.2,.57-.2,.87s.07,.59,.2,.86c.14,.27,.33,.5,.57,.68,.25,.18,.54,.27,.88,.27Z"/><path d="M46.73,95.96v-7.14h.96v7.14h-.96Z"/><path d="M51.41,96.11c-.51,0-.96-.12-1.36-.36s-.71-.56-.94-.96c-.22-.4-.34-.84-.34-1.32s.11-.93,.34-1.33c.23-.4,.54-.72,.94-.96s.85-.36,1.36-.36,.96,.12,1.35,.36c.4,.24,.71,.56,.94,.96,.23,.4,.34,.84,.34,1.33s-.11,.92-.34,1.32-.54,.72-.94,.96c-.4,.24-.85,.36-1.35,.36Zm0-.84c.35,0,.65-.09,.89-.26,.25-.17,.44-.4,.57-.68,.13-.28,.2-.57,.2-.87s-.07-.59-.2-.87c-.13-.28-.32-.51-.57-.68s-.55-.26-.89-.26-.64,.09-.89,.26-.44,.4-.57,.67c-.13,.28-.2,.57-.2,.87s.07,.59,.2,.86c.14,.27,.33,.5,.57,.68,.25,.18,.54,.27,.88,.27Z"/><path d="M55.35,97.69l.45-.71c.16,.11,.37,.21,.6,.29s.53,.12,.87,.12c.48,0,.84-.13,1.07-.4,.24-.26,.35-.61,.35-1.04v-.61c-.06,.06-.16,.14-.29,.24s-.29,.2-.5,.28c-.2,.09-.46,.13-.75,.13-.49,0-.9-.11-1.24-.32-.34-.21-.6-.51-.77-.88-.18-.38-.26-.8-.26-1.27,0-.51,.12-.97,.35-1.38,.24-.4,.56-.72,.99-.95,.42-.23,.91-.34,1.47-.34,.4,0,.78,.04,1.13,.11,.35,.07,.64,.15,.85,.24v4.75c0,.71-.21,1.27-.63,1.67-.42,.4-1.01,.6-1.76,.6-.51,0-.91-.06-1.21-.17s-.54-.24-.73-.37Zm3.36-3.76v-2.07c-.06-.02-.17-.05-.33-.09-.15-.04-.38-.06-.69-.06-.36,0-.68,.08-.95,.23-.27,.15-.48,.37-.64,.64-.15,.27-.23,.58-.23,.94,0,.3,.05,.57,.14,.82,.1,.25,.25,.45,.47,.6,.21,.15,.49,.22,.82,.22s.59-.06,.79-.18,.36-.28,.46-.47,.15-.39,.15-.59Z"/><path d="M60.98,90.09v-1.08h1.08v1.08h-1.08Zm.06,5.87v-4.98h.96v4.98h-.96Z"/><path d="M67.37,94.65l.55,.58c-.07,.09-.2,.2-.39,.34-.19,.14-.43,.26-.72,.38-.3,.11-.65,.17-1.08,.17-.51,0-.97-.11-1.36-.34-.39-.22-.7-.54-.92-.94s-.33-.87-.33-1.4c0-.49,.11-.92,.32-1.32s.5-.71,.88-.94c.37-.23,.8-.35,1.29-.35,.58,0,1.05,.14,1.4,.42s.62,.64,.78,1.08c.16,.44,.25,.92,.25,1.42h-3.93c0,.29,.09,.55,.24,.79s.35,.41,.59,.55c.25,.13,.51,.2,.8,.2,.42,0,.77-.07,1.04-.21s.47-.28,.58-.42Zm-3.26-1.62h2.93c-.03-.39-.16-.71-.41-.99-.24-.27-.59-.41-1.03-.41-.31,0-.57,.07-.79,.2-.22,.14-.39,.31-.51,.52s-.18,.43-.2,.67Z"/><path d="M75.05,94.65l.55,.58c-.07,.09-.2,.2-.39,.34-.19,.14-.43,.26-.72,.38-.3,.11-.65,.17-1.08,.17-.51,0-.97-.11-1.36-.34-.39-.22-.7-.54-.92-.94s-.33-.87-.33-1.4c0-.49,.11-.92,.32-1.32s.5-.71,.88-.94c.37-.23,.8-.35,1.29-.35,.58,0,1.05,.14,1.4,.42s.62,.64,.78,1.08c.16,.44,.25,.92,.25,1.42h-3.93c0,.29,.09,.55,.24,.79s.35,.41,.59,.55c.25,.13,.51,.2,.8,.2,.42,0,.77-.07,1.04-.21s.47-.28,.58-.42Zm-3.26-1.62h2.93c-.03-.39-.16-.71-.41-.99-.24-.27-.59-.41-1.03-.41-.31,0-.57,.07-.79,.2-.22,.14-.39,.31-.51,.52s-.18,.43-.2,.67Zm1.02-2.86l.58-1.46h1.05l-.82,1.46h-.8Z"/><path d="M80.41,95.96l-.03-.63c-.05,.06-.14,.15-.27,.28-.13,.13-.31,.25-.53,.35-.22,.1-.49,.16-.81,.16-.42,0-.8-.11-1.13-.32-.34-.21-.6-.51-.79-.89-.19-.38-.29-.84-.29-1.36,0-.47,.08-.88,.24-1.22s.37-.62,.63-.83,.53-.37,.83-.48c.3-.1,.58-.16,.84-.16s.51,.03,.7,.09c.2,.06,.39,.14,.59,.24v-2.37h.96v6.84c0,.1,0,.21,.01,.31h-.94Zm-.03-2.1v-1.78c-.13-.11-.29-.2-.49-.27s-.44-.11-.73-.11c-.46,0-.85,.17-1.16,.49s-.47,.78-.47,1.35c0,.31,.05,.6,.16,.87,.1,.26,.26,.47,.48,.63,.21,.15,.49,.23,.81,.23s.6-.08,.81-.23c.2-.15,.35-.34,.45-.56,.1-.22,.14-.43,.14-.62Z"/><path d="M82.65,93.97v-2.99h.96v2.92c0,.46,.1,.8,.29,1.02,.19,.21,.47,.32,.84,.32s.66-.1,.87-.29c.21-.19,.36-.44,.44-.73,.09-.3,.13-.61,.13-.93v-2.31h.96v4.67c0,.1,0,.21,.01,.31h-.92l-.03-.74c-.08,.11-.19,.24-.33,.37-.14,.13-.32,.24-.54,.34s-.48,.14-.79,.14c-.65,0-1.13-.19-1.44-.57-.31-.38-.46-.89-.46-1.53Z"/><path d="M92.23,94.65l.59,.62c-.22,.25-.5,.45-.82,.61-.33,.15-.7,.23-1.12,.23-.54,0-1-.12-1.39-.34-.39-.23-.69-.54-.91-.94-.21-.4-.32-.85-.32-1.37,0-.49,.11-.93,.33-1.33,.22-.4,.53-.72,.93-.96,.4-.24,.85-.36,1.35-.36,.42,0,.79,.08,1.11,.22,.32,.15,.6,.35,.82,.61l-.63,.61c-.15-.19-.33-.33-.55-.44s-.47-.16-.76-.16c-.34,0-.64,.08-.88,.25-.25,.17-.43,.39-.56,.66s-.19,.57-.19,.89,.07,.6,.2,.87c.13,.27,.32,.5,.56,.67s.54,.26,.88,.26c.29,0,.56-.05,.79-.17,.23-.11,.42-.26,.57-.44Z"/><path d="M96.91,95.96l-.02-.6c-.18,.24-.42,.43-.73,.55-.31,.12-.62,.19-.94,.19-.27,0-.54-.05-.81-.15-.27-.1-.49-.26-.66-.49s-.26-.53-.26-.91c0-.54,.19-.96,.57-1.29s.92-.48,1.62-.48c.16,0,.32,0,.49,.02,.17,.01,.32,.02,.46,.03,.14,.01,.22,.02,.27,.03v-.18c0-.37-.11-.64-.34-.8-.22-.16-.53-.24-.92-.24s-.67,.05-.89,.16c-.23,.1-.41,.21-.56,.32l-.45-.65c.18-.14,.42-.28,.74-.42,.31-.13,.74-.2,1.27-.2,.64,0,1.14,.16,1.51,.47,.37,.31,.56,.75,.56,1.32v3.08c0,.07,0,.16,.01,.26h-.9Zm-.03-1.79v-.57s-.12-.03-.25-.04-.27-.02-.43-.03c-.16-.01-.32-.02-.47-.02-.36,0-.63,.05-.82,.16-.19,.1-.32,.23-.39,.38-.07,.15-.1,.31-.1,.46,0,.26,.09,.47,.28,.61,.19,.14,.44,.21,.77,.21,.25,0,.48-.06,.69-.17,.21-.11,.38-.25,.51-.43,.13-.18,.2-.37,.2-.57Z"/><path d="M99.54,94.33v-2.55h-.9v-.8h.9v-1.63h.96v1.63h1.46v.8h-1.46v2.45c0,.4,.06,.67,.19,.83,.12,.15,.3,.22,.53,.22,.19,0,.34-.03,.47-.09,.12-.06,.24-.14,.36-.26l.44,.59c-.21,.2-.42,.34-.64,.43-.22,.09-.48,.13-.78,.13-.52,0-.91-.14-1.16-.43-.25-.29-.38-.73-.38-1.33Z"/><path d="M103.2,90.09v-1.08h1.08v1.08h-1.08Zm.06,5.87v-4.98h.96v4.98h-.96Z"/><path d="M107.14,95.96l-2.14-4.98h1.1l1.55,3.89,1.54-3.89h1.04l-2.13,4.98h-.96Z"/><path d="M114.7,94.65l.55,.58c-.07,.09-.2,.2-.39,.34-.19,.14-.43,.26-.72,.38-.3,.11-.66,.17-1.08,.17-.51,0-.97-.11-1.36-.34s-.7-.54-.92-.94-.33-.87-.33-1.4c0-.49,.1-.92,.32-1.32s.5-.71,.88-.94c.38-.23,.81-.35,1.29-.35,.58,0,1.05,.14,1.4,.42,.36,.28,.62,.64,.78,1.08,.16,.44,.25,.92,.25,1.42h-3.93c0,.29,.08,.55,.24,.79,.15,.23,.35,.41,.59,.55,.25,.13,.51,.2,.8,.2,.42,0,.77-.07,1.04-.21,.27-.14,.47-.28,.58-.42Zm-3.25-1.62h2.93c-.03-.39-.16-.71-.41-.99-.24-.27-.59-.41-1.03-.41-.31,0-.57,.07-.79,.2-.22,.14-.39,.31-.51,.52-.12,.21-.18,.43-.2,.67Z"/><path d="M122.01,95.96l-.03-.63c-.05,.06-.14,.15-.27,.28-.13,.13-.31,.25-.53,.35-.22,.1-.49,.16-.81,.16-.42,0-.8-.11-1.14-.32-.33-.21-.6-.51-.79-.89-.19-.38-.29-.84-.29-1.36,0-.47,.08-.88,.24-1.22,.16-.34,.37-.62,.63-.83s.53-.37,.83-.48c.3-.1,.58-.16,.84-.16s.5,.03,.7,.09c.2,.06,.39,.14,.59,.24v-2.37h.96v6.84c0,.1,0,.21,.01,.31h-.94Zm-.03-2.1v-1.78c-.13-.11-.29-.2-.49-.27s-.44-.11-.73-.11c-.46,0-.85,.17-1.16,.49s-.47,.78-.47,1.35c0,.31,.05,.6,.16,.87,.1,.26,.26,.47,.48,.63,.21,.15,.49,.23,.81,.23s.61-.08,.81-.23c.2-.15,.35-.34,.45-.56,.1-.22,.14-.43,.14-.62Z"/><path d="M124.25,93.97v-2.99h.96v2.92c0,.46,.1,.8,.29,1.02,.19,.21,.47,.32,.83,.32s.66-.1,.87-.29c.21-.19,.35-.44,.44-.73,.09-.3,.13-.61,.13-.93v-2.31h.96v4.67c0,.1,0,.21,.01,.31h-.92l-.03-.74c-.08,.11-.19,.24-.33,.37-.14,.13-.32,.24-.54,.34s-.48,.14-.79,.14c-.65,0-1.13-.19-1.43-.57-.31-.38-.46-.89-.46-1.53Z"/><path d="M138.15,96.82l-.9-1.09c-.25,.13-.52,.23-.81,.3-.29,.08-.59,.11-.9,.11-.51,0-.99-.1-1.44-.29-.44-.19-.83-.46-1.16-.8-.33-.34-.59-.74-.78-1.19s-.28-.94-.28-1.46,.09-1.01,.28-1.46c.19-.45,.45-.85,.78-1.2,.33-.35,.72-.62,1.16-.81,.44-.19,.92-.29,1.44-.29s.99,.1,1.43,.29c.44,.19,.83,.46,1.16,.81,.33,.35,.59,.75,.78,1.2,.19,.45,.28,.94,.28,1.46,0,.57-.11,1.1-.34,1.6-.22,.49-.53,.91-.93,1.25l.86,1.04-.63,.54Zm-1.52-1.86l-.89-1.1,.64-.54,.91,1.14c.26-.25,.46-.56,.6-.92,.14-.36,.21-.75,.21-1.16,0-.51-.11-.98-.32-1.41s-.51-.76-.89-1.02c-.39-.25-.84-.38-1.36-.38s-.97,.13-1.36,.38c-.39,.25-.68,.59-.89,1.02-.21,.42-.32,.89-.32,1.41s.11,.97,.32,1.4c.21,.43,.51,.77,.89,1.03,.39,.26,.84,.38,1.36,.38,.39,0,.76-.08,1.09-.24Z"/><path d="M140.34,93.97v-2.99h.96v2.92c0,.46,.1,.8,.29,1.02,.19,.21,.47,.32,.83,.32s.66-.1,.87-.29c.21-.19,.35-.44,.44-.73,.09-.3,.13-.61,.13-.93v-2.31h.96v4.67c0,.1,0,.21,.01,.31h-.92l-.03-.74c-.08,.11-.19,.24-.33,.37-.14,.13-.32,.24-.54,.34s-.48,.14-.79,.14c-.65,0-1.13-.19-1.43-.57-.31-.38-.46-.89-.46-1.53Z"/><path d="M150.17,94.65l.55,.58c-.07,.09-.2,.2-.39,.34-.19,.14-.43,.26-.72,.38-.3,.11-.66,.17-1.08,.17-.51,0-.97-.11-1.36-.34s-.7-.54-.92-.94-.33-.87-.33-1.4c0-.49,.1-.92,.32-1.32s.5-.71,.88-.94c.38-.23,.81-.35,1.29-.35,.58,0,1.05,.14,1.4,.42,.36,.28,.62,.64,.78,1.08,.16,.44,.25,.92,.25,1.42h-3.93c0,.29,.08,.55,.24,.79,.15,.23,.35,.41,.59,.55,.25,.13,.51,.2,.8,.2,.42,0,.77-.07,1.04-.21,.27-.14,.47-.28,.58-.42Zm-3.25-1.62h2.93c-.03-.39-.16-.71-.41-.99-.24-.27-.59-.41-1.03-.41-.31,0-.57,.07-.79,.2-.22,.14-.39,.31-.51,.52-.12,.21-.18,.43-.2,.67Zm1.02-2.86l.58-1.46h1.05l-.82,1.46h-.8Z"/><path d="M151.92,95.79v-6.97h.96v2.71c.1-.14,.28-.28,.54-.43s.59-.23,1.01-.23c.49,0,.91,.11,1.25,.34,.34,.23,.59,.54,.77,.93,.17,.39,.26,.82,.26,1.3,0,.52-.12,.98-.35,1.39s-.56,.72-.98,.95c-.42,.23-.91,.34-1.46,.34-.41,0-.79-.03-1.14-.1s-.63-.14-.85-.22Zm.95-2.63v1.98c.1,.03,.22,.06,.37,.09s.36,.05,.65,.05c.55,0,.99-.17,1.32-.51s.5-.78,.5-1.31c0-.31-.05-.59-.14-.86-.1-.26-.25-.48-.46-.64-.21-.16-.49-.25-.83-.25-.31,0-.57,.07-.78,.2-.21,.14-.37,.31-.47,.54-.1,.22-.16,.46-.16,.71Z"/><path d="M161.78,94.65l.55,.58c-.07,.09-.2,.2-.39,.34-.19,.14-.43,.26-.72,.38-.3,.11-.66,.17-1.08,.17-.51,0-.97-.11-1.36-.34s-.7-.54-.92-.94-.33-.87-.33-1.4c0-.49,.1-.92,.32-1.32s.5-.71,.88-.94c.38-.23,.81-.35,1.29-.35,.58,0,1.05,.14,1.4,.42,.36,.28,.62,.64,.78,1.08,.16,.44,.25,.92,.25,1.42h-3.93c0,.29,.08,.55,.24,.79,.15,.23,.35,.41,.59,.55,.25,.13,.51,.2,.8,.2,.42,0,.77-.07,1.04-.21,.27-.14,.47-.28,.58-.42Zm-3.25-1.62h2.93c-.03-.39-.16-.71-.41-.99-.24-.27-.59-.41-1.03-.41-.31,0-.57,.07-.79,.2-.22,.14-.39,.31-.51,.52-.12,.21-.18,.43-.2,.67Z"/><path d="M167.26,94.65l.59,.62c-.22,.25-.5,.45-.82,.61s-.7,.23-1.12,.23c-.54,0-1-.12-1.39-.34-.39-.23-.69-.54-.9-.94-.21-.4-.32-.85-.32-1.37,0-.49,.11-.93,.33-1.33,.22-.4,.53-.72,.93-.96s.85-.36,1.35-.36c.42,0,.79,.08,1.11,.22,.32,.15,.6,.35,.82,.61l-.63,.61c-.15-.19-.33-.33-.55-.44s-.47-.16-.76-.16c-.34,0-.64,.08-.88,.25-.25,.17-.43,.39-.56,.66s-.19,.57-.19,.89,.07,.6,.2,.87c.13,.27,.32,.5,.56,.67,.24,.17,.54,.26,.88,.26,.29,0,.56-.05,.79-.17,.23-.11,.42-.26,.57-.44Z"/></g><g><g><path class="cls-2" d="M.02,18.04c-.01,.2-.02,.4-.02,.44s0-.1,.02-.31,.01-.33,0-.13Z"/><path class="cls-5" d="M10.86,21.78L1.06,14.57c-.45,.91-.79,1.88-.95,2.81-.07,.41-.11,.81-.11,1.19v22.31c0,1.25,.4,2.68,1.06,4l9.8-7.22v-15.87Z"/><polygon class="cls-6" points="10.86 21.78 10.86 37.65 21.63 29.72 10.86 21.78"/><path class="cls-3" d="M10.86,53.48l8.45,6.23c.64,.47,1.49,.71,2.34,.71v-14.88s0,0,0,0v11.28h0s0,0,0,0v-11.28l-10.78,7.94Z"/><polygon class="cls-4" points="21.63 29.72 10.86 37.65 10.86 53.48 21.64 45.54 21.64 29.72 21.63 29.72"/><polygon class="cls-2" points="21.64 45.54 21.64 45.54 21.64 29.72 21.64 45.54"/><path class="cls-8" d="M10.86,21.77l10.78-7.94V2.63c0-2.54-1.67-3.38-3.72-1.88L3.72,11.21c-1.04,.77-1.98,2-2.66,3.36l9.8,7.22h0Z"/><path class="cls-2" d="M21.64,45.54l7.14-5.26c2.04-1.51,3.72-4.81,3.72-7.35v-11.2l-10.86,8v15.81Z"/></g><g><path d="M55.45,35.12c0-1.89,1.6-3.24,3.38-3.24s3.38,1.35,3.38,3.24-1.55,3.29-3.38,3.29-3.38-1.5-3.38-3.29Zm.58,7.06h5.66v25.09h-5.66v-25.09Z"/><path d="M68.89,56.48v-4.79h16.48v4.79h-16.48Z"/><path d="M95.76,39.61h-8.36v-5.03h22.53v5.03h-8.31v27.65h-5.85v-27.65Z"/><path d="M115.97,34.58h18.71v5.03h-12.91v8.75h10.92l-.29,4.83h-10.63v9.04h13.34v5.03h-19.14V34.58Z"/><path d="M167.46,64.6l-3.93-3.91c.7-1.72,1.09-3.75,1.09-6.1v-7.25c0-8.94-5.61-13.39-12.52-13.39s-12.52,4.45-12.52,13.39v7.25c0,8.94,5.61,13.29,12.52,13.29,3.28,0,6.26-.99,8.49-2.98l3.29,3.28,3.57-3.58Zm-15.35-1.74c-3.92,0-6.72-2.37-6.72-8.7v-6.48c0-6.24,2.8-8.7,6.72-8.7s6.67,2.47,6.67,8.7v6.48c0,.61-.03,1.18-.08,1.72l-3.41-3.4-3.57,3.58,5.02,4.99c-1.17,1.26-2.77,1.81-4.62,1.81Z"/></g><path class="cls-9" d="M21.63,29.72h0s10.86-7.99,10.86-7.99V10.45c0-2.54-1.67-3.38-3.72-1.88l-7.14,5.26v15.88h0Z"/><polygon class="cls-7" points="10.86 21.78 21.63 29.72 21.64 29.71 21.64 13.83 10.86 21.77 10.86 21.78"/><path class="cls-1" d="M10.86,53.48v-15.82L1.06,44.87c.68,1.36,1.62,2.59,2.66,3.36"/><path class="cls-10" d="M39.57,16.52l-7.07,5.2v11.2c0,2.54-1.67,5.85-3.72,7.35l-7.14,5.26v14.88c.84,0,1.68-.24,2.31-.71l15.61-11.48c2.04-1.51,3.72-4.81,3.72-7.35V18.4c0-2.54-1.67-3.38-3.72-1.88Z"/></g><path class="cls-2" d="M57.7,105.46c-.01,.2-.02,.4-.02,.44s0-.1,.02-.31,.01-.33,0-.13Z"/></svg>